<?xml version="1.0" standalone="no"?>
<!DOCTYPE svg PUBLIC "-//W3C//DTD SVG 20010904//EN"
 "http://www.w3.org/TR/2001/REC-SVG-20010904/DTD/svg10.dtd">
<svg version="1.0" xmlns="http://www.w3.org/2000/svg"
 width="512.000000pt" height="512.000000pt" viewBox="0 0 512.000000 512.000000"
 preserveAspectRatio="xMidYMid meet">

<g transform="translate(0.000000,512.000000) scale(0.100000,-0.100000)"
fill="#000000" stroke="none">
<path d="M151 5045 c-53 -16 -107 -66 -132 -120 -18 -39 -19 -117 -19 -2210 0
-1484 3 -2182 11 -2208 13 -47 60 -102 110 -128 32 -16 59 -19 176 -19 76 0
143 4 149 8 32 21 42 77 20 108 -13 17 -31 20 -144 24 -109 5 -134 9 -151 24
l-21 19 0 2163 0 2163 26 20 27 21 2357 0 2357 0 27 -21 26 -20 0 -465 0 -465
25 -24 c31 -32 69 -32 100 0 l25 24 0 471 c0 523 1 512 -68 583 -70 72 125 67
-2496 66 -1967 0 -2368 -3 -2405 -14z"/>
<path d="M551 4635 c-24 -8 -61 -31 -83 -52 -71 -69 -69 -36 -66 -995 l3 -855
30 -48 c22 -36 45 -57 84 -77 l53 -28 1987 0 1987 0 55 28 c40 20 61 39 84 76
l30 49 3 859 c2 594 -1 872 -8 900 -6 22 -29 60 -52 84 -74 80 98 74 -2102 73
-1631 0 -1968 -3 -2005 -14z m3994 -160 l25 -24 0 -841 c0 -827 0 -840 -20
-860 -20 -20 -33 -20 -1990 -20 -1957 0 -1970 0 -1990 20 -20 20 -20 33 -20
860 l0 841 25 24 24 25 1961 0 1961 0 24 -25z"/>
<path d="M4991 3554 l-21 -27 0 -1492 0 -1492 -21 -19 c-20 -18 -54 -19 -1044
-22 l-1024 -2 -20 -27 c-26 -33 -26 -53 0 -87 l20 -26 1040 0 c1010 0 1041 1
1078 19 50 26 97 81 110 128 8 26 11 520 11 1531 l0 1493 -25 24 c-33 34 -77
33 -104 -1z"/>
<path d="M525 2171 c-152 -69 -161 -280 -15 -361 35 -19 63 -25 132 -28 49 -3
88 -7 88 -9 0 -3 -29 -278 -65 -612 -101 -933 -103 -957 -82 -998 22 -42 70
-80 117 -93 26 -7 348 -10 982 -8 899 3 945 4 981 22 63 31 82 68 82 161 0 44
-3 116 -7 160 -9 99 -136 1286 -143 1336 l-5 36 69 5 c132 10 211 86 211 202
0 90 -43 158 -122 191 -33 13 -164 15 -1110 15 -1016 0 -1075 -1 -1113 -19z
m235 -148 c0 -10 -3 -35 -6 -55 l-7 -38 -78 0 c-66 0 -82 3 -99 20 -24 24 -25
38 -4 68 14 20 23 22 105 22 78 0 89 -2 89 -17z m1006 -808 c23 -451 44 -862
47 -912 l5 -93 -536 0 c-295 0 -543 4 -550 9 -11 7 4 170 82 903 53 492 96
900 96 906 0 9 95 12 408 10 l407 -3 41 -820z m949 801 c11 -17 13 -30 6 -48
-12 -31 -29 -38 -97 -38 l-54 0 0 33 c0 17 -3 42 -6 55 -6 21 -4 22 65 22 63
0 72 -2 86 -24z"/>
<path d="M3324 2176 c-17 -8 -42 -29 -55 -47 -23 -33 -24 -40 -27 -259 -3
-253 2 -274 67 -317 33 -22 42 -23 258 -23 251 0 276 5 313 65 19 30 20 49 20
268 l0 235 -26 32 c-49 57 -62 60 -301 60 -160 -1 -226 -4 -249 -14z m426
-316 l0 -180 -180 0 -180 0 0 180 0 180 180 0 180 0 0 -180z"/>
<path d="M4133 2174 c-18 -9 -43 -33 -55 -53 -22 -35 -23 -45 -23 -261 0 -337
-7 -330 328 -330 252 0 266 3 309 62 22 32 23 41 26 253 3 213 2 221 -20 264
-39 76 -58 81 -313 81 -181 0 -226 -3 -252 -16z m437 -314 l0 -180 -185 0
-185 0 0 180 0 180 185 0 185 0 0 -180z"/>
<path d="M3352 1391 c-18 -5 -45 -19 -59 -32 -48 -45 -53 -72 -53 -299 0 -247
7 -272 83 -309 40 -19 60 -21 253 -21 234 0 259 6 301 69 22 33 23 41 23 265
0 335 5 330 -310 333 -113 1 -220 -2 -238 -6z m398 -331 l0 -180 -180 0 -180
0 0 180 0 180 180 0 180 0 0 -180z"/>
<path d="M4175 1391 c-47 -12 -72 -28 -97 -63 -22 -32 -23 -38 -23 -265 0
-218 1 -233 21 -259 50 -68 54 -69 295 -72 207 -3 223 -2 264 18 33 16 49 32
65 65 20 41 21 57 18 264 -3 241 -4 245 -72 295 -25 19 -43 21 -234 23 -114 1
-220 -2 -237 -6z m395 -331 l0 -180 -185 0 -185 0 0 180 0 180 185 0 185 0 0
-180z"/>
</g>
</svg>
